<svg width="57" height="57" fill="none" xmlns="http://www.w3.org/2000/svg"><path fill-rule="evenodd" clip-rule="evenodd" d="M28.23 17.001c3.07 0 5.557-2.459 5.557-5.5C33.787 8.462 31.303 6 28.231 6c-3.07 0-5.557 2.46-5.557 5.5.003 3.042 2.487 5.501 5.557 5.501zm0-9.55c2.268 0 4.095 1.808 4.095 4.053 0 2.244-1.827 4.053-4.094 4.053-2.268 0-4.095-1.809-4.095-4.053.003-2.245 1.83-4.054 4.095-4.054zm7.967 34.59l-.511-4.343C38.173 36.902 40 34.443 40 31.693c0-1.52-.585-3.039-1.608-4.198l-5.407-6.077a2.97 2.97 0 0 1-.44-.506c-.805-.941-1.828-2.027-2.998-2.027h-3.578c-2.193 0-2.998 1.739-2.998 2.968l-1.242 9.77L18 42.04h6.87V50h1.462v-9.407h-6.288l3.07-8.54 1.242-10.057v-.073c0-.433.148-1.591 1.536-1.591h3.655c.488 0 1.246.86 1.759 1.442l.068.078.511.506 5.043 5.716.22.217c.876.868 1.387 2.098 1.387 3.4 0 2.245-1.607 4.272-3.8 4.778l-.657.144.44 3.98h-4.606L29.91 50h1.462v-7.96h4.826z" fill="#69C0BA"/><path d="M28.5 56C43.688 56 56 43.688 56 28.5S43.688 1 28.5 1 1 13.312 1 28.5 13.312 56 28.5 56z" stroke="#6AC0BA" stroke-width="1.5"/></svg>