<svg viewBox="0 0 430 422" xmlns="http://www.w3.org/2000/svg" fill-rule="evenodd" clip-rule="evenodd" stroke-linejoin="round" stroke-miterlimit="1.414"><path fill="none" d="M0 0h430v421.667H0z"/><clipPath id="a"><path d="M0 0h430v421.667H0z"/></clipPath><g clip-path="url(#a)"><path d="M58.5 173l148-148.5c4.7-4.7 12.3-4.7 17 0l148 148.5c4.7 4.7 4.7 12.3 0 17l-7.1 7.1c-4.7 4.7-12.3 4.7-17 0L232 81.1V393c0 6.6-5.4 12-12 12h-10c-6.6 0-12-5.4-12-12V81.1L82.6 197c-4.7 4.7-12.3 4.7-17 0l-7.1-7.1c-4.7-4.6-4.7-12.2 0-16.9zM23-31v8c0 6.6 5.4 12 12 12h360c6.6 0 12-5.4 12-12v-8c0-6.6-5.4-12-12-12H35c-6.6 0-12 5.4-12 12z" fill="#4a4a4a" fill-rule="nonzero"/></g></svg>