<svg xmlns="http://www.w3.org/2000/svg" width="96" height="89" viewBox="0 0 96 89">
    <path fill="#69C0BA" fill-rule="evenodd" d="M86.999 9.66C81.126 4.628 70.89 2.557 60.783 3.031c-1.59.076-4.807-.771-6.356-1.175C49.96.702 45.402.159 40.797.006c-1.71-.055-3.246.272-4.566 1.42-2.176 1.886-4.445 3.674-6.554 5.628-5.533 5.143-10.586 10.695-14.376 17.284-1.2 2.08-1.123 2.222 1.256 2.73 3.978.854 8.02 1.412 11.864 2.831.867.32 1.494.626 1.326 1.775-.802 5.37-1.374 10.784-2.498 16.1-.523 2.491-1.592 3.173-4.118 2.582-1.905-.446-3.747-1.197-5.618-1.781-5.85-1.796-11.25-.481-16.45 2.324-1.361.73-1.32 1.425-.413 2.553 5.39 6.722 11.65 11.662 21.093 10.541-1.173 2.158-1.99 4.286-2.123 6.618-.397 6.75 2.156 12.51 6.03 17.834.524.723 1.069.702 1.628.153.836-.828 1.688-1.65 2.407-2.575 3.566-4.607 5.458-9.678 5.18-15.649-.281-6.11.766-6.874 6.77-6.297 5.163.5 10.314 1.154 15.486 1.51 6.449.446 12.877.32 18.9-2.54 1.055-.5 1.333-.112 1.564.863.78 3.277 1.165 6.562.732 9.923-.062.494-.405 1.126.084 1.468.622.438 1.069-.251 1.515-.558 4-2.727 6.867-6.435 9.016-10.694 2.61-5.17 3.972-10.535 1.885-16.267-.307-.843-.007-1.6.454-2.234 8.15-11.218 5.144-27.822-4.272-35.889zm-3 8.027c1.55 2.339.886 5.679-1.46 7.326-2.372 1.671-5.89 1.03-7.495-1.355-1.6-2.373-.984-5.734 1.34-7.321 2.596-1.782 5.932-1.19 7.615 1.35z"/>
</svg>
