<svg xmlns="http://www.w3.org/2000/svg" width="94" height="93" viewBox="0 0 94 93">
    <path fill="#69C0BA" fill-rule="nonzero" d="M94 36.23c0-3.085-3.552-5.926-9.474-8.217 5.611-11.252 3.429-25.715 3.306-26.442l-.139-.913-.91-.148C86.654.49 83.577 0 79.155 0c-7.61 0-18.113 1.44-24.935 8.303-3.943 3.968-6.056 9.162-7.164 14.24H47c-2.305 0-4.553.066-6.772.157-.7-1.246-1.537-2.427-2.583-3.48-4.606-4.634-11.66-5.604-16.769-5.604-2.95 0-5.018.329-5.104.34l-.907.149-.148.913c-.057.358-.837 5.531.164 11.235C5.742 28.749 0 32.286 0 36.225 0 55.591 12.69 73.603 30.489 80.73c-4.79 1.295-7.806 3.137-7.806 5.19 0 3.91 10.887 7.081 24.321 7.081 13.434 0 24.317-3.17 24.317-7.081 0-2.048-3.02-3.895-7.81-5.19C81.31 73.606 94 55.594 94 36.229zm-11.885-9.076c-.4.773-.842 1.521-1.328 2.253-.732 1.106-1.545 2.163-2.497 3.121-6.204 6.239-16 7.547-23.128 7.547-2.292 0-4.189-.14-5.472-.268l8.88-8.94h7.52a.64.64 0 0 0 .638-.642.638.638 0 0 0-.637-.641h-6.245l7.757-7.81L85.524 3.743c.405 4.178.9 14.977-3.408 23.411zM56.021 10.116c6.203-6.239 16.004-7.55 23.131-7.55 2.293 0 4.185.14 5.477.267L67.794 19.772v-8.797a.638.638 0 0 0-1.275 0v10.08L48.791 38.894c-.254-2.661-.544-8.015.396-13.751.143-.852.298-1.703.499-2.558 1.042-4.524 2.942-9.056 6.334-12.47zM35.843 21.038a12.477 12.477 0 0 1 1.46 1.801c.539.786 1 1.625 1.385 2.496 2.178 4.931 2.076 10.82 1.851 13.707L28.851 27.277v-4.734a.638.638 0 0 0-1.275 0v3.45l-9.63-9.688c.785-.062 1.782-.12 2.935-.12 4.618 0 10.973.844 14.963 4.853zm-18.795-3.824l10.711 10.778c0 .004.004.004.004.004l11.885 11.958a35.53 35.53 0 0 1-2.93.115c-4.627 0-10.978-.843-14.967-4.852-1.95-1.962-3.127-4.503-3.838-7.106a25.354 25.354 0 0 1-.544-2.5c-.555-3.344-.466-6.506-.323-8.398h.002zM15.42 28.757c.813 2.986 2.203 5.942 4.524 8.274 4.606 4.635 11.66 5.61 16.768 5.61 2.951 0 5.015-.33 5.1-.342l.908-.144.147-.917c.074-.452 1.329-8.784-1.47-16.018 1.679-.061 3.4-.094 5.165-.098-1.271 8.17-.176 15.437-.094 15.947l.147.913.907.148c.127.02 3.205.51 7.627.51 7.61 0 18.112-1.44 24.93-8.299 1.246-1.25 2.284-2.636 3.192-4.088 5.247 1.946 8.165 4.13 8.165 5.976 0 4.532-17.316 11.119-44.449 11.119S2.54 40.76 2.54 36.228c.008-2.343 4.663-5.226 12.882-7.471z"/>
</svg>
