<svg width="152" height="133" xmlns="http://www.w3.org/2000/svg"><g fill="none" fill-rule="evenodd"><path d="M32.69 9.835c7.895-2.718 65.036-22.208 93.368 5.112 13.371 12.894 32.283 64.334 23.174 86.993-1.52 3.78-13.86 8.552-16.774 5.776-2.016-1.927-2.821-30.036-11.594-33.67-3.245-1.347-12.707 1.658-14.086 4.851 4.155 12.067 19.81 47.219 17.602 51.122-2.77 4.898-18.398 11.276-22.53 7.758-2.85-2.432-10.688-31.042-13.444-39.047-9.043 13.208-71.018 46.711-91.526 36.147 2.652 7.703 14.874 31.564 12.382 35.96-2.774 4.89-20.812 12.745-22.53 7.757-1.206-3.471-34.151-81.363-34.151-81.363S-64.68 43.363 32.69 9.835zm78.868 31.97c2.274-.782 3.561-3.045 2.865-5.068-.694-2.013-3.09-3.005-5.374-2.219-2.274.783-3.562 3.044-2.868 5.057.694 2.016 3.104 3.013 5.377 2.23z" fill="#FFF"/><path d="M84.41 61.341c-25.743 7.365-39.405-4.424-40.986-35.366" stroke="#D8D8D8" stroke-width="3" stroke-linecap="round"/></g></svg>